<mxfile host="app.diagrams.net" modified="2022-07-18T07:41:59.134Z" agent="5.0 (Windows NT 10.0; Win64; x64) AppleWebKit/537.36 (KHTML, like Gecko) Chrome/103.0.0.0 Safari/537.36" etag="bs4gUq409h0Y0E6HMJw7" version="20.1.1" type="github">
  <diagram id="5ps31W_fSeImCxD2thCh" name="Page-1">
    <mxGraphModel dx="1360" dy="802" grid="1" gridSize="10" guides="1" tooltips="1" connect="1" arrows="1" fold="1" page="1" pageScale="1" pageWidth="827" pageHeight="1169" math="0" shadow="0">
      <root>
        <mxCell id="0" />
        <mxCell id="1" parent="0" />
        <mxCell id="HGHpCyZl_hRlV_seGQvt-1" value="cinder_backup api" style="shape=umlLifeline;perimeter=lifelinePerimeter;whiteSpace=wrap;html=1;container=1;collapsible=0;recursiveResize=0;outlineConnect=0;fillColor=#ffe6cc;strokeColor=#d79b00;" parent="1" vertex="1">
          <mxGeometry x="420" y="80" width="100" height="570" as="geometry" />
        </mxCell>
        <mxCell id="HGHpCyZl_hRlV_seGQvt-4" value="create&amp;nbsp;" style="html=1;points=[];perimeter=orthogonalPerimeter;fillColor=#dae8fc;strokeColor=#6c8ebf;" parent="HGHpCyZl_hRlV_seGQvt-1" vertex="1">
          <mxGeometry x="45" y="80" width="10" height="150" as="geometry" />
        </mxCell>
        <mxCell id="HGHpCyZl_hRlV_seGQvt-47" value="restore" style="html=1;points=[];perimeter=orthogonalPerimeter;fillColor=#dae8fc;strokeColor=#6c8ebf;" parent="HGHpCyZl_hRlV_seGQvt-1" vertex="1">
          <mxGeometry x="45" y="310" width="10" height="80" as="geometry" />
        </mxCell>
        <mxCell id="HGHpCyZl_hRlV_seGQvt-2" value="cinder_backup manager" style="shape=umlLifeline;perimeter=lifelinePerimeter;whiteSpace=wrap;html=1;container=1;collapsible=0;recursiveResize=0;outlineConnect=0;fillColor=#ffe6cc;strokeColor=#d79b00;" parent="1" vertex="1">
          <mxGeometry x="610" y="80" width="100" height="580" as="geometry" />
        </mxCell>
        <mxCell id="HGHpCyZl_hRlV_seGQvt-5" value="create_backup" style="html=1;points=[];perimeter=orthogonalPerimeter;fillColor=#dae8fc;strokeColor=#6c8ebf;" parent="HGHpCyZl_hRlV_seGQvt-2" vertex="1">
          <mxGeometry x="45" y="118" width="10" height="112" as="geometry" />
        </mxCell>
        <mxCell id="HGHpCyZl_hRlV_seGQvt-48" value="restore_backup" style="html=1;points=[];perimeter=orthogonalPerimeter;fillColor=#dae8fc;strokeColor=#6c8ebf;" parent="HGHpCyZl_hRlV_seGQvt-2" vertex="1">
          <mxGeometry x="45" y="346" width="10" height="80" as="geometry" />
        </mxCell>
        <mxCell id="HGHpCyZl_hRlV_seGQvt-3" value="portal&amp;nbsp;" style="shape=umlLifeline;perimeter=lifelinePerimeter;whiteSpace=wrap;html=1;container=1;collapsible=0;recursiveResize=0;outlineConnect=0;fillColor=#ffe6cc;strokeColor=#d79b00;" parent="1" vertex="1">
          <mxGeometry x="50" y="80" width="100" height="580" as="geometry" />
        </mxCell>
        <mxCell id="HGHpCyZl_hRlV_seGQvt-10" value="创建备份" style="html=1;points=[];perimeter=orthogonalPerimeter;fillColor=#dae8fc;strokeColor=#6c8ebf;" parent="HGHpCyZl_hRlV_seGQvt-3" vertex="1">
          <mxGeometry x="45" y="80" width="10" height="80" as="geometry" />
        </mxCell>
        <mxCell id="HGHpCyZl_hRlV_seGQvt-43" value="恢复备份" style="html=1;points=[];perimeter=orthogonalPerimeter;fillColor=#dae8fc;strokeColor=#6c8ebf;" parent="HGHpCyZl_hRlV_seGQvt-3" vertex="1">
          <mxGeometry x="45" y="310" width="10" height="80" as="geometry" />
        </mxCell>
        <mxCell id="HGHpCyZl_hRlV_seGQvt-9" value="RPC create_backup" style="edgeStyle=orthogonalEdgeStyle;rounded=0;orthogonalLoop=1;jettySize=auto;html=1;" parent="1" edge="1">
          <mxGeometry x="-0.0556" y="16" relative="1" as="geometry">
            <mxPoint x="476" y="203" as="sourcePoint" />
            <mxPoint x="656" y="203" as="targetPoint" />
            <mxPoint as="offset" />
          </mxGeometry>
        </mxCell>
        <mxCell id="HGHpCyZl_hRlV_seGQvt-12" value="cinderclient" style="shape=umlLifeline;perimeter=lifelinePerimeter;whiteSpace=wrap;html=1;container=1;collapsible=0;recursiveResize=0;outlineConnect=0;fillColor=#ffe6cc;strokeColor=#d79b00;" parent="1" vertex="1">
          <mxGeometry x="240" y="80" width="80" height="580" as="geometry" />
        </mxCell>
        <mxCell id="HGHpCyZl_hRlV_seGQvt-13" value="" style="html=1;points=[];perimeter=orthogonalPerimeter;fillColor=#dae8fc;strokeColor=#6c8ebf;" parent="HGHpCyZl_hRlV_seGQvt-12" vertex="1">
          <mxGeometry x="45" y="80" width="10" height="80" as="geometry" />
        </mxCell>
        <mxCell id="HGHpCyZl_hRlV_seGQvt-46" value="" style="html=1;points=[];perimeter=orthogonalPerimeter;fillColor=#dae8fc;strokeColor=#6c8ebf;" parent="HGHpCyZl_hRlV_seGQvt-12" vertex="1">
          <mxGeometry x="35" y="310" width="10" height="80" as="geometry" />
        </mxCell>
        <mxCell id="HGHpCyZl_hRlV_seGQvt-14" value="&lt;br&gt;" style="edgeStyle=orthogonalEdgeStyle;rounded=0;orthogonalLoop=1;jettySize=auto;html=1;" parent="1" edge="1">
          <mxGeometry relative="1" as="geometry">
            <mxPoint x="105" y="164" as="sourcePoint" />
            <mxPoint x="285" y="164" as="targetPoint" />
          </mxGeometry>
        </mxCell>
        <mxCell id="HGHpCyZl_hRlV_seGQvt-15" value="cinder.backups.create(volume_id, **data)" style="edgeLabel;html=1;align=center;verticalAlign=middle;resizable=0;points=[];" parent="HGHpCyZl_hRlV_seGQvt-14" vertex="1" connectable="0">
          <mxGeometry x="0.3111" y="1" relative="1" as="geometry">
            <mxPoint x="-23" y="-19" as="offset" />
          </mxGeometry>
        </mxCell>
        <mxCell id="HGHpCyZl_hRlV_seGQvt-18" value="POST /backups&lt;br&gt;" style="edgeStyle=orthogonalEdgeStyle;rounded=0;orthogonalLoop=1;jettySize=auto;html=1;" parent="1" edge="1">
          <mxGeometry y="16" relative="1" as="geometry">
            <mxPoint x="295" y="166" as="sourcePoint" />
            <mxPoint x="465" y="166" as="targetPoint" />
            <mxPoint as="offset" />
          </mxGeometry>
        </mxCell>
        <mxCell id="HGHpCyZl_hRlV_seGQvt-19" style="edgeStyle=orthogonalEdgeStyle;rounded=0;orthogonalLoop=1;jettySize=auto;html=1;entryX=0.5;entryY=0.5;entryDx=0;entryDy=0;entryPerimeter=0;dashed=1;" parent="1" edge="1">
          <mxGeometry relative="1" as="geometry">
            <mxPoint x="466" y="232" as="sourcePoint" />
            <mxPoint x="291" y="232" as="targetPoint" />
          </mxGeometry>
        </mxCell>
        <mxCell id="HGHpCyZl_hRlV_seGQvt-21" value="object.backup" style="edgeLabel;html=1;align=center;verticalAlign=middle;resizable=0;points=[];" parent="HGHpCyZl_hRlV_seGQvt-19" vertex="1" connectable="0">
          <mxGeometry x="0.3143" y="-2" relative="1" as="geometry">
            <mxPoint x="20" y="-10" as="offset" />
          </mxGeometry>
        </mxCell>
        <mxCell id="HGHpCyZl_hRlV_seGQvt-20" style="edgeStyle=orthogonalEdgeStyle;rounded=0;orthogonalLoop=1;jettySize=auto;html=1;entryX=0.9;entryY=0.5;entryDx=0;entryDy=0;entryPerimeter=0;dashed=1;" parent="1" edge="1">
          <mxGeometry relative="1" as="geometry">
            <mxPoint x="285" y="232" as="sourcePoint" />
            <mxPoint x="104" y="232" as="targetPoint" />
          </mxGeometry>
        </mxCell>
        <mxCell id="HGHpCyZl_hRlV_seGQvt-24" value="object.backup" style="edgeLabel;html=1;align=center;verticalAlign=middle;resizable=0;points=[];" parent="HGHpCyZl_hRlV_seGQvt-20" vertex="1" connectable="0">
          <mxGeometry x="0.2265" relative="1" as="geometry">
            <mxPoint x="16" y="-12" as="offset" />
          </mxGeometry>
        </mxCell>
        <mxCell id="HGHpCyZl_hRlV_seGQvt-22" value="cinder_backup driver" style="shape=umlLifeline;perimeter=lifelinePerimeter;whiteSpace=wrap;html=1;container=1;collapsible=0;recursiveResize=0;outlineConnect=0;fillColor=#ffe6cc;strokeColor=#d79b00;" parent="1" vertex="1">
          <mxGeometry x="750" y="80" width="100" height="590" as="geometry" />
        </mxCell>
        <mxCell id="HGHpCyZl_hRlV_seGQvt-23" value="backup" style="html=1;points=[];perimeter=orthogonalPerimeter;fillColor=#dae8fc;strokeColor=#6c8ebf;" parent="HGHpCyZl_hRlV_seGQvt-22" vertex="1">
          <mxGeometry x="45" y="120" width="10" height="106" as="geometry" />
        </mxCell>
        <mxCell id="HGHpCyZl_hRlV_seGQvt-78" value="" style="html=1;points=[];perimeter=orthogonalPerimeter;fillColor=#dae8fc;strokeColor=#6c8ebf;" parent="HGHpCyZl_hRlV_seGQvt-22" vertex="1">
          <mxGeometry x="45" y="350" width="10" height="80" as="geometry" />
        </mxCell>
        <mxCell id="HGHpCyZl_hRlV_seGQvt-26" value="backup" style="edgeStyle=orthogonalEdgeStyle;rounded=0;orthogonalLoop=1;jettySize=auto;html=1;entryX=-0.1;entryY=0.488;entryDx=0;entryDy=0;entryPerimeter=0;" parent="1" edge="1">
          <mxGeometry relative="1" as="geometry">
            <mxPoint x="665" y="200.03999999999996" as="sourcePoint" />
            <mxPoint x="794" y="200.03999999999996" as="targetPoint" />
          </mxGeometry>
        </mxCell>
        <mxCell id="HGHpCyZl_hRlV_seGQvt-28" value="database" style="shape=umlLifeline;perimeter=lifelinePerimeter;whiteSpace=wrap;html=1;container=1;collapsible=0;recursiveResize=0;outlineConnect=0;fillColor=#ffe6cc;strokeColor=#d79b00;" parent="1" vertex="1">
          <mxGeometry x="960" y="80" width="80" height="590" as="geometry" />
        </mxCell>
        <mxCell id="HGHpCyZl_hRlV_seGQvt-30" value="" style="html=1;points=[];perimeter=orthogonalPerimeter;fillColor=#dae8fc;strokeColor=#6c8ebf;" parent="HGHpCyZl_hRlV_seGQvt-28" vertex="1">
          <mxGeometry x="35" y="80" width="10" height="60" as="geometry" />
        </mxCell>
        <mxCell id="HGHpCyZl_hRlV_seGQvt-34" value="update object.backup" style="edgeStyle=orthogonalEdgeStyle;rounded=0;orthogonalLoop=1;jettySize=auto;html=1;entryX=0;entryY=0.393;entryDx=0;entryDy=0;entryPerimeter=0;" parent="HGHpCyZl_hRlV_seGQvt-28" edge="1">
          <mxGeometry relative="1" as="geometry">
            <mxPoint x="-156.5" y="198.11" as="sourcePoint" />
            <mxPoint x="37" y="198.11" as="targetPoint" />
            <Array as="points">
              <mxPoint x="-126" y="198" />
              <mxPoint x="-126" y="198" />
            </Array>
          </mxGeometry>
        </mxCell>
        <mxCell id="HGHpCyZl_hRlV_seGQvt-41" value="" style="html=1;points=[];perimeter=orthogonalPerimeter;fillColor=#dae8fc;strokeColor=#6c8ebf;" parent="HGHpCyZl_hRlV_seGQvt-28" vertex="1">
          <mxGeometry x="35" y="196" width="10" height="27" as="geometry" />
        </mxCell>
        <mxCell id="HGHpCyZl_hRlV_seGQvt-53" value="" style="html=1;points=[];perimeter=orthogonalPerimeter;fillColor=#dae8fc;strokeColor=#6c8ebf;" parent="HGHpCyZl_hRlV_seGQvt-28" vertex="1">
          <mxGeometry x="35" y="310" width="10" height="10" as="geometry" />
        </mxCell>
        <mxCell id="HGHpCyZl_hRlV_seGQvt-58" value="" style="html=1;points=[];perimeter=orthogonalPerimeter;fillColor=#dae8fc;strokeColor=#6c8ebf;" parent="HGHpCyZl_hRlV_seGQvt-28" vertex="1">
          <mxGeometry x="35" y="147" width="10" height="20" as="geometry" />
        </mxCell>
        <mxCell id="HGHpCyZl_hRlV_seGQvt-31" value="create object.backup" style="edgeStyle=orthogonalEdgeStyle;rounded=0;orthogonalLoop=1;jettySize=auto;html=1;entryX=0.1;entryY=0.1;entryDx=0;entryDy=0;entryPerimeter=0;" parent="1" target="HGHpCyZl_hRlV_seGQvt-30" edge="1">
          <mxGeometry x="-0.0211" y="16" relative="1" as="geometry">
            <mxPoint x="475" y="166.03999999999996" as="sourcePoint" />
            <mxPoint x="950" y="166.03999999999996" as="targetPoint" />
            <mxPoint as="offset" />
          </mxGeometry>
        </mxCell>
        <mxCell id="HGHpCyZl_hRlV_seGQvt-33" value="update object.backup object.volume" style="edgeStyle=orthogonalEdgeStyle;rounded=0;orthogonalLoop=1;jettySize=auto;html=1;entryX=0.1;entryY=0.733;entryDx=0;entryDy=0;entryPerimeter=0;" parent="1" edge="1">
          <mxGeometry x="0.4234" y="12" relative="1" as="geometry">
            <mxPoint x="665" y="210.02999999999997" as="sourcePoint" />
            <mxPoint x="996" y="211.98000000000002" as="targetPoint" />
            <Array as="points">
              <mxPoint x="665" y="212" />
            </Array>
            <mxPoint as="offset" />
          </mxGeometry>
        </mxCell>
        <mxCell id="HGHpCyZl_hRlV_seGQvt-35" value="storage_backend&lt;br&gt;(ceph、nfs)" style="shape=umlLifeline;perimeter=lifelinePerimeter;whiteSpace=wrap;html=1;container=1;collapsible=0;recursiveResize=0;outlineConnect=0;fillColor=#ffe6cc;strokeColor=#d79b00;" parent="1" vertex="1">
          <mxGeometry x="1060" y="80" width="110" height="590" as="geometry" />
        </mxCell>
        <mxCell id="HGHpCyZl_hRlV_seGQvt-38" value="" style="html=1;points=[];perimeter=orthogonalPerimeter;fillColor=#dae8fc;strokeColor=#6c8ebf;" parent="HGHpCyZl_hRlV_seGQvt-35" vertex="1">
          <mxGeometry x="50" y="172" width="10" height="28" as="geometry" />
        </mxCell>
        <mxCell id="HGHpCyZl_hRlV_seGQvt-52" value="" style="html=1;points=[];perimeter=orthogonalPerimeter;fillColor=#dae8fc;strokeColor=#6c8ebf;" parent="HGHpCyZl_hRlV_seGQvt-35" vertex="1">
          <mxGeometry x="50" y="350" width="10" height="30" as="geometry" />
        </mxCell>
        <mxCell id="HGHpCyZl_hRlV_seGQvt-40" value="write data" style="edgeStyle=orthogonalEdgeStyle;rounded=0;orthogonalLoop=1;jettySize=auto;html=1;entryX=-0.2;entryY=0.214;entryDx=0;entryDy=0;entryPerimeter=0;" parent="HGHpCyZl_hRlV_seGQvt-35" target="HGHpCyZl_hRlV_seGQvt-38" edge="1">
          <mxGeometry x="0.3891" y="-3" relative="1" as="geometry">
            <mxPoint x="-255.5" y="180" as="sourcePoint" />
            <mxPoint x="40" y="172" as="targetPoint" />
            <Array as="points">
              <mxPoint x="-255" y="179" />
            </Array>
            <mxPoint x="1" as="offset" />
          </mxGeometry>
        </mxCell>
        <mxCell id="HGHpCyZl_hRlV_seGQvt-49" value="cinder.restores.restore(backup_id, volume_id)" style="edgeStyle=orthogonalEdgeStyle;rounded=0;orthogonalLoop=1;jettySize=auto;html=1;" parent="1" edge="1">
          <mxGeometry x="-0.2353" y="17" relative="1" as="geometry">
            <mxPoint x="105" y="397" as="sourcePoint" />
            <mxPoint x="275" y="397" as="targetPoint" />
            <mxPoint as="offset" />
          </mxGeometry>
        </mxCell>
        <mxCell id="HGHpCyZl_hRlV_seGQvt-50" value="POST&amp;nbsp;/backups/${backup_id}/restore" style="edgeStyle=orthogonalEdgeStyle;rounded=0;orthogonalLoop=1;jettySize=auto;html=1;" parent="1" edge="1">
          <mxGeometry x="0.0556" y="17" relative="1" as="geometry">
            <mxPoint x="285" y="397" as="sourcePoint" />
            <mxPoint x="465" y="397" as="targetPoint" />
            <mxPoint as="offset" />
          </mxGeometry>
        </mxCell>
        <mxCell id="HGHpCyZl_hRlV_seGQvt-54" value="cinder_volume" style="shape=umlLifeline;perimeter=lifelinePerimeter;whiteSpace=wrap;html=1;container=1;collapsible=0;recursiveResize=0;outlineConnect=0;fillColor=#ffe6cc;strokeColor=#d79b00;" parent="1" vertex="1">
          <mxGeometry x="880" y="80" width="50" height="560" as="geometry" />
        </mxCell>
        <mxCell id="HGHpCyZl_hRlV_seGQvt-55" value="" style="html=1;points=[];perimeter=orthogonalPerimeter;fillColor=#dae8fc;strokeColor=#6c8ebf;" parent="HGHpCyZl_hRlV_seGQvt-54" vertex="1">
          <mxGeometry x="20" y="148" width="10" height="20" as="geometry" />
        </mxCell>
        <mxCell id="HGHpCyZl_hRlV_seGQvt-69" value="" style="html=1;points=[];perimeter=orthogonalPerimeter;fillColor=#dae8fc;strokeColor=#6c8ebf;" parent="HGHpCyZl_hRlV_seGQvt-54" vertex="1">
          <mxGeometry x="20" y="310" width="10" height="10" as="geometry" />
        </mxCell>
        <mxCell id="HGHpCyZl_hRlV_seGQvt-84" value="" style="html=1;points=[];perimeter=orthogonalPerimeter;fillColor=#dae8fc;strokeColor=#6c8ebf;" parent="HGHpCyZl_hRlV_seGQvt-54" vertex="1">
          <mxGeometry x="20" y="380" width="10" height="40" as="geometry" />
        </mxCell>
        <mxCell id="HGHpCyZl_hRlV_seGQvt-56" value="get object.volume" style="edgeStyle=orthogonalEdgeStyle;rounded=0;orthogonalLoop=1;jettySize=auto;html=1;entryX=0;entryY=0.633;entryDx=0;entryDy=0;entryPerimeter=0;" parent="1" edge="1">
          <mxGeometry x="-0.0525" y="10" relative="1" as="geometry">
            <mxPoint x="805" y="230" as="sourcePoint" />
            <mxPoint x="900" y="229.586" as="targetPoint" />
            <Array as="points">
              <mxPoint x="860" y="230" />
              <mxPoint x="860" y="230" />
            </Array>
            <mxPoint as="offset" />
          </mxGeometry>
        </mxCell>
        <mxCell id="HGHpCyZl_hRlV_seGQvt-57" style="edgeStyle=orthogonalEdgeStyle;rounded=0;orthogonalLoop=1;jettySize=auto;html=1;entryX=1.3;entryY=0.263;entryDx=0;entryDy=0;entryPerimeter=0;dashed=1;" parent="1" edge="1">
          <mxGeometry relative="1" as="geometry">
            <mxPoint x="896" y="246" as="sourcePoint" />
            <mxPoint x="804" y="246.03999999999996" as="targetPoint" />
            <Array as="points">
              <mxPoint x="866" y="246" />
              <mxPoint x="866" y="246" />
            </Array>
          </mxGeometry>
        </mxCell>
        <mxCell id="HGHpCyZl_hRlV_seGQvt-59" style="edgeStyle=orthogonalEdgeStyle;rounded=0;orthogonalLoop=1;jettySize=auto;html=1;entryX=-0.2;entryY=0.375;entryDx=0;entryDy=0;entryPerimeter=0;" parent="1" edge="1">
          <mxGeometry relative="1" as="geometry">
            <mxPoint x="911" y="228" as="sourcePoint" />
            <mxPoint x="994" y="228" as="targetPoint" />
          </mxGeometry>
        </mxCell>
        <mxCell id="HGHpCyZl_hRlV_seGQvt-60" style="edgeStyle=orthogonalEdgeStyle;rounded=0;orthogonalLoop=1;jettySize=auto;html=1;entryX=1.4;entryY=0.2;entryDx=0;entryDy=0;entryPerimeter=0;dashed=1;" parent="1" edge="1">
          <mxGeometry relative="1" as="geometry">
            <mxPoint x="991" y="178" as="sourcePoint" />
            <mxPoint x="475" y="178" as="targetPoint" />
          </mxGeometry>
        </mxCell>
        <mxCell id="HGHpCyZl_hRlV_seGQvt-62" style="edgeStyle=orthogonalEdgeStyle;rounded=0;orthogonalLoop=1;jettySize=auto;html=1;entryX=1.6;entryY=0.6;entryDx=0;entryDy=0;entryPerimeter=0;dashed=1;" parent="1" edge="1">
          <mxGeometry relative="1" as="geometry">
            <mxPoint x="989" y="245" as="sourcePoint" />
            <mxPoint x="910" y="245" as="targetPoint" />
          </mxGeometry>
        </mxCell>
        <mxCell id="HGHpCyZl_hRlV_seGQvt-63" style="edgeStyle=orthogonalEdgeStyle;rounded=0;orthogonalLoop=1;jettySize=auto;html=1;entryX=1.5;entryY=0.627;entryDx=0;entryDy=0;entryPerimeter=0;dashed=1;" parent="1" edge="1">
          <mxGeometry relative="1" as="geometry">
            <mxPoint x="650" y="294" as="sourcePoint" />
            <mxPoint x="475" y="294.04999999999995" as="targetPoint" />
            <Array as="points">
              <mxPoint x="585" y="294" />
              <mxPoint x="585" y="294" />
            </Array>
          </mxGeometry>
        </mxCell>
        <mxCell id="HGHpCyZl_hRlV_seGQvt-64" style="edgeStyle=orthogonalEdgeStyle;rounded=0;orthogonalLoop=1;jettySize=auto;html=1;dashed=1;" parent="1" edge="1">
          <mxGeometry relative="1" as="geometry">
            <mxPoint x="794" y="299" as="sourcePoint" />
            <mxPoint x="664" y="299" as="targetPoint" />
            <Array as="points">
              <mxPoint x="759" y="299" />
              <mxPoint x="759" y="299" />
            </Array>
          </mxGeometry>
        </mxCell>
        <mxCell id="HGHpCyZl_hRlV_seGQvt-66" style="edgeStyle=orthogonalEdgeStyle;rounded=0;orthogonalLoop=1;jettySize=auto;html=1;dashed=1;" parent="1" edge="1">
          <mxGeometry relative="1" as="geometry">
            <mxPoint x="1110" y="273" as="sourcePoint" />
            <mxPoint x="800" y="273" as="targetPoint" />
          </mxGeometry>
        </mxCell>
        <mxCell id="HGHpCyZl_hRlV_seGQvt-68" style="edgeStyle=orthogonalEdgeStyle;rounded=0;orthogonalLoop=1;jettySize=auto;html=1;entryX=0.5;entryY=0.925;entryDx=0;entryDy=0;entryPerimeter=0;dashed=1;" parent="1" source="HGHpCyZl_hRlV_seGQvt-41" target="HGHpCyZl_hRlV_seGQvt-23" edge="1">
          <mxGeometry relative="1" as="geometry">
            <Array as="points">
              <mxPoint x="970" y="300" />
              <mxPoint x="970" y="300" />
            </Array>
          </mxGeometry>
        </mxCell>
        <mxCell id="HGHpCyZl_hRlV_seGQvt-70" style="edgeStyle=orthogonalEdgeStyle;rounded=0;orthogonalLoop=1;jettySize=auto;html=1;entryX=0.1;entryY=0.3;entryDx=0;entryDy=0;entryPerimeter=0;" parent="1" edge="1">
          <mxGeometry relative="1" as="geometry">
            <mxPoint x="475" y="391" as="sourcePoint" />
            <mxPoint x="901" y="390" as="targetPoint" />
            <Array as="points">
              <mxPoint x="475" y="390" />
            </Array>
          </mxGeometry>
        </mxCell>
        <mxCell id="HGHpCyZl_hRlV_seGQvt-71" value="if volume_id is None, create volume&lt;br&gt;else get volume" style="edgeLabel;html=1;align=center;verticalAlign=middle;resizable=0;points=[];" parent="HGHpCyZl_hRlV_seGQvt-70" vertex="1" connectable="0">
          <mxGeometry x="-0.3302" relative="1" as="geometry">
            <mxPoint x="52" y="-20" as="offset" />
          </mxGeometry>
        </mxCell>
        <mxCell id="HGHpCyZl_hRlV_seGQvt-72" style="edgeStyle=orthogonalEdgeStyle;rounded=0;orthogonalLoop=1;jettySize=auto;html=1;dashed=1;" parent="1" source="HGHpCyZl_hRlV_seGQvt-69" edge="1">
          <mxGeometry relative="1" as="geometry">
            <mxPoint x="475" y="400" as="targetPoint" />
            <Array as="points">
              <mxPoint x="475" y="400" />
            </Array>
          </mxGeometry>
        </mxCell>
        <mxCell id="HGHpCyZl_hRlV_seGQvt-73" value="RPC restore_backup" style="edgeStyle=orthogonalEdgeStyle;rounded=0;orthogonalLoop=1;jettySize=auto;html=1;" parent="1" source="HGHpCyZl_hRlV_seGQvt-47" edge="1">
          <mxGeometry x="0.1732" y="10" relative="1" as="geometry">
            <mxPoint x="654" y="430" as="targetPoint" />
            <Array as="points">
              <mxPoint x="654" y="430" />
            </Array>
            <mxPoint as="offset" />
          </mxGeometry>
        </mxCell>
        <mxCell id="HGHpCyZl_hRlV_seGQvt-75" style="edgeStyle=orthogonalEdgeStyle;rounded=0;orthogonalLoop=1;jettySize=auto;html=1;entryX=0.9;entryY=0.95;entryDx=0;entryDy=0;entryPerimeter=0;dashed=1;" parent="1" source="HGHpCyZl_hRlV_seGQvt-48" target="HGHpCyZl_hRlV_seGQvt-47" edge="1">
          <mxGeometry relative="1" as="geometry" />
        </mxCell>
        <mxCell id="HGHpCyZl_hRlV_seGQvt-76" style="edgeStyle=orthogonalEdgeStyle;rounded=0;orthogonalLoop=1;jettySize=auto;html=1;entryX=1.1;entryY=0.875;entryDx=0;entryDy=0;entryPerimeter=0;dashed=1;" parent="1" source="HGHpCyZl_hRlV_seGQvt-47" target="HGHpCyZl_hRlV_seGQvt-46" edge="1">
          <mxGeometry relative="1" as="geometry">
            <Array as="points">
              <mxPoint x="430" y="460" />
              <mxPoint x="430" y="460" />
            </Array>
          </mxGeometry>
        </mxCell>
        <mxCell id="HGHpCyZl_hRlV_seGQvt-77" style="edgeStyle=orthogonalEdgeStyle;rounded=0;orthogonalLoop=1;jettySize=auto;html=1;dashed=1;" parent="1" edge="1">
          <mxGeometry relative="1" as="geometry">
            <mxPoint x="275" y="459" as="sourcePoint" />
            <mxPoint x="105" y="459" as="targetPoint" />
          </mxGeometry>
        </mxCell>
        <mxCell id="HGHpCyZl_hRlV_seGQvt-79" style="edgeStyle=orthogonalEdgeStyle;rounded=0;orthogonalLoop=1;jettySize=auto;html=1;entryX=-0.2;entryY=0.188;entryDx=0;entryDy=0;entryPerimeter=0;" parent="1" edge="1">
          <mxGeometry relative="1" as="geometry">
            <mxPoint x="912" y="389.99999999999994" as="sourcePoint" />
            <mxPoint x="995" y="389.99999999999994" as="targetPoint" />
          </mxGeometry>
        </mxCell>
        <mxCell id="HGHpCyZl_hRlV_seGQvt-81" value="update object.backup object.volume" style="edgeLabel;html=1;align=center;verticalAlign=middle;resizable=0;points=[];" parent="HGHpCyZl_hRlV_seGQvt-79" vertex="1" connectable="0">
          <mxGeometry x="-0.253" y="-1" relative="1" as="geometry">
            <mxPoint x="17" y="-16" as="offset" />
          </mxGeometry>
        </mxCell>
        <mxCell id="HGHpCyZl_hRlV_seGQvt-80" style="edgeStyle=orthogonalEdgeStyle;rounded=0;orthogonalLoop=1;jettySize=auto;html=1;entryX=1.1;entryY=1.3;entryDx=0;entryDy=0;entryPerimeter=0;dashed=1;" parent="1" edge="1">
          <mxGeometry relative="1" as="geometry">
            <mxPoint x="993" y="400" as="sourcePoint" />
            <mxPoint x="909" y="400" as="targetPoint" />
            <Array as="points">
              <mxPoint x="978" y="400" />
              <mxPoint x="978" y="400" />
            </Array>
          </mxGeometry>
        </mxCell>
        <mxCell id="HGHpCyZl_hRlV_seGQvt-86" style="edgeStyle=orthogonalEdgeStyle;rounded=0;orthogonalLoop=1;jettySize=auto;html=1;" parent="1" source="HGHpCyZl_hRlV_seGQvt-78" edge="1">
          <mxGeometry relative="1" as="geometry">
            <mxPoint x="899" y="470" as="targetPoint" />
            <Array as="points">
              <mxPoint x="899" y="470" />
            </Array>
          </mxGeometry>
        </mxCell>
        <mxCell id="HGHpCyZl_hRlV_seGQvt-87" value="write data" style="edgeLabel;html=1;align=center;verticalAlign=middle;resizable=0;points=[];" parent="HGHpCyZl_hRlV_seGQvt-86" vertex="1" connectable="0">
          <mxGeometry x="-0.2527" y="1" relative="1" as="geometry">
            <mxPoint x="10" y="-9" as="offset" />
          </mxGeometry>
        </mxCell>
        <mxCell id="HGHpCyZl_hRlV_seGQvt-88" value="restore" style="edgeStyle=orthogonalEdgeStyle;rounded=0;orthogonalLoop=1;jettySize=auto;html=1;entryX=0.5;entryY=0.45;entryDx=0;entryDy=0;entryPerimeter=0;" parent="1" edge="1">
          <mxGeometry relative="1" as="geometry">
            <mxPoint x="665" y="438" as="sourcePoint" />
            <mxPoint x="800" y="438" as="targetPoint" />
          </mxGeometry>
        </mxCell>
        <mxCell id="HGHpCyZl_hRlV_seGQvt-89" style="edgeStyle=orthogonalEdgeStyle;rounded=0;orthogonalLoop=1;jettySize=auto;html=1;entryX=1.4;entryY=0.75;entryDx=0;entryDy=0;entryPerimeter=0;dashed=1;" parent="1" edge="1">
          <mxGeometry relative="1" as="geometry">
            <mxPoint x="793" y="497" as="sourcePoint" />
            <mxPoint x="667" y="497" as="targetPoint" />
            <Array as="points">
              <mxPoint x="748" y="497" />
              <mxPoint x="748" y="497" />
            </Array>
          </mxGeometry>
        </mxCell>
        <mxCell id="HGHpCyZl_hRlV_seGQvt-90" style="edgeStyle=orthogonalEdgeStyle;rounded=0;orthogonalLoop=1;jettySize=auto;html=1;entryX=1.1;entryY=0.65;entryDx=0;entryDy=0;entryPerimeter=0;dashed=1;" parent="1" edge="1">
          <mxGeometry relative="1" as="geometry">
            <mxPoint x="900" y="497" as="sourcePoint" />
            <mxPoint x="806" y="497" as="targetPoint" />
            <Array as="points">
              <mxPoint x="880" y="497" />
              <mxPoint x="880" y="497" />
            </Array>
          </mxGeometry>
        </mxCell>
        <mxCell id="HGHpCyZl_hRlV_seGQvt-95" style="edgeStyle=orthogonalEdgeStyle;rounded=0;orthogonalLoop=1;jettySize=auto;html=1;entryX=1.2;entryY=0.25;entryDx=0;entryDy=0;entryPerimeter=0;dashed=1;" parent="1" source="HGHpCyZl_hRlV_seGQvt-52" target="HGHpCyZl_hRlV_seGQvt-78" edge="1">
          <mxGeometry relative="1" as="geometry">
            <Array as="points">
              <mxPoint x="1030" y="450" />
              <mxPoint x="1030" y="450" />
            </Array>
          </mxGeometry>
        </mxCell>
        <mxCell id="HGHpCyZl_hRlV_seGQvt-96" value="read data" style="edgeStyle=orthogonalEdgeStyle;rounded=0;orthogonalLoop=1;jettySize=auto;html=1;entryX=0;entryY=0.1;entryDx=0;entryDy=0;entryPerimeter=0;" parent="1" source="HGHpCyZl_hRlV_seGQvt-78" target="HGHpCyZl_hRlV_seGQvt-52" edge="1">
          <mxGeometry relative="1" as="geometry">
            <Array as="points">
              <mxPoint x="930" y="433" />
              <mxPoint x="930" y="433" />
            </Array>
          </mxGeometry>
        </mxCell>
      </root>
    </mxGraphModel>
  </diagram>
</mxfile>
